<svg width="249" height="305" viewBox="0 0 249 305" fill="none" xmlns="http://www.w3.org/2000/svg">
<path d="M68.9284 16.3994H79.8184M180.878 16.3994H170.859M170.859 16.3994V133.391C170.859 134.619 170.341 135.789 169.433 136.615L161.663 143.679C160.064 145.132 157.642 145.194 155.971 143.824L148.343 137.572C146.743 136.26 144.441 136.255 142.835 137.56L124.903 152.127M170.859 16.3994H79.8184M124.903 152.127L108.931 137.794C107.341 136.367 104.95 136.304 103.287 137.645L95.472 143.948C93.8451 145.26 91.5157 145.231 89.9212 143.88L81.3582 136.623C80.3815 135.796 79.8184 134.58 79.8184 133.3V16.3994M124.903 152.127V209.806M124.903 32.081V107.004M99.4204 60.1773H149.732M40.3966 130.962V130.962C40.3966 133.368 42.3468 135.318 44.7526 135.318H53.4646C55.8704 135.318 57.8206 133.368 57.8206 130.962V130.962M40.3966 130.962V85.2243C40.3966 82.8185 42.3468 80.8683 44.7526 80.8683H52.7274C55.0802 80.8683 57.0078 82.7366 57.0813 85.0882L57.8206 108.747V130.962M40.3966 130.962C28.0688 130.962 27.5489 146.805 40.9342 152.127M57.8206 130.962C70.6775 130.962 72.6962 146.805 60.1578 152.127M40.9342 152.127C43.3993 153.107 46.336 153.73 49.7574 153.831C53.9518 153.956 57.4055 153.295 60.1578 152.127M40.9342 152.127V164.068M40.9342 164.068H15.7796C13.3738 164.068 11.4236 166.018 11.4236 168.424V200.143C11.4236 201.436 11.9978 202.662 12.9909 203.489L20.5712 209.806M40.9342 164.068H60.1578M20.5712 209.806L27.5793 199.294C29.3688 196.61 33.3535 196.734 34.9719 199.525L40.9342 209.806M20.5712 209.806L20.5797 268.83M40.9342 209.806L48.0992 198.951C49.8162 196.35 53.6301 196.341 55.359 198.935L58.9454 204.314C60.6793 206.915 64.5069 206.897 66.2165 204.281L70.0163 198.465C71.63 195.995 75.1808 195.81 77.0424 198.099L82.4273 204.719C84.3924 207.135 88.1846 206.769 89.6502 204.021L91.8499 199.896C93.3998 196.99 97.4897 196.789 99.3172 199.529L103.421 205.681C104.88 207.868 107.928 208.275 109.908 206.547L122.173 195.848C123.752 194.47 126.09 194.412 127.735 195.711L141.459 206.543C143.605 208.236 146.762 207.558 148.023 205.132L150.683 200.014C152.211 197.072 156.334 196.848 158.172 199.606L161.274 204.258C163.017 206.873 166.873 206.837 168.567 204.19L171.97 198.872C173.628 196.282 177.377 196.179 179.174 198.675L183.586 204.803C185.343 207.244 188.987 207.212 190.701 204.74L194.495 199.267C196.341 196.605 200.343 196.817 201.897 199.66L207.444 209.806M40.9342 209.806V268.83M207.444 209.806L214.576 198.888C216.267 196.3 220.041 196.248 221.803 198.789L229.441 209.806M207.444 209.806V268.83M229.441 209.806L237.201 203.49C238.217 202.663 238.807 201.422 238.807 200.112V168.424C238.807 166.018 236.857 164.068 234.451 164.068H209.536M229.441 209.806V268.83M192.851 130.962V85.2243C192.851 82.8185 194.801 80.8683 197.207 80.8683H205.182C207.535 80.8683 209.462 82.7366 209.536 85.0882L210.275 108.747V130.962M192.851 130.962C180.523 130.962 180.003 146.805 193.389 152.127M192.851 130.962C192.851 133.368 194.801 135.318 197.207 135.318H205.919C208.325 135.318 210.275 133.368 210.275 130.962M210.275 130.962C224.098 130.962 225.393 149.277 209.536 153.137M193.389 152.127C195.854 153.107 198.79 153.73 202.212 153.831C204.969 153.913 207.407 153.656 209.536 153.137M193.389 152.127V164.068M60.1578 152.127V164.068M60.1578 164.068H193.389M209.536 153.137V164.068M209.536 164.068H193.389M207.444 268.83C197.338 268.83 197.28 279.575 198.514 284.947M207.444 268.83H229.441M198.514 284.947C192.369 284.947 190.851 292.036 190.864 297.691C190.869 299.877 192.743 301.5 194.929 301.5H241.777C243.192 301.5 244.559 300.805 244.894 299.43C246.148 294.289 244.211 284.385 237.282 284.947M198.514 284.947H237.282M229.441 268.83C239.722 268.83 238.444 279.575 237.282 284.947M20.5797 268.83C10.4737 268.83 10.4157 279.575 11.6499 284.947M20.5797 268.83H40.9342M11.6499 284.947C5.50517 284.947 3.98692 292.036 4.00008 297.691C4.00518 299.877 5.87896 301.5 8.06506 301.5H54.9131C56.3284 301.5 57.6951 300.805 58.0305 299.43C59.2845 294.289 57.347 284.385 50.4183 284.947M11.6499 284.947H50.4183M40.9342 268.83C51.2144 268.83 51.5799 279.575 50.4183 284.947M124.903 209.806L106.172 238.338M124.903 209.806L145.594 238.338M106.172 238.338H145.594M106.172 238.338V238.338C103.385 238.338 101.499 241.179 102.582 243.748L113.152 268.83M145.594 238.338V238.338C148.44 238.338 150.407 241.185 149.399 243.847L139.941 268.83M139.941 268.83H113.152M139.941 268.83L149.089 284.947M113.152 268.83L100.302 284.947M100.302 284.947H94.6493C92.2435 284.947 90.2933 286.897 90.2933 289.303V297.144C90.2933 299.55 92.2435 301.5 94.6493 301.5H155.623C158.029 301.5 159.979 299.55 159.979 297.144V289.303C159.979 286.897 158.029 284.947 155.623 284.947H149.089M100.302 284.947H149.089M115.125 85.2243L133.625 93.5M194.539 72.3104C188.365 65.6086 194.537 54.6531 200.831 49.948C201.394 49.5276 202.161 49.539 202.712 49.9747C209.607 55.4304 213.915 67.1444 208.565 72.3887C208.275 72.6727 207.876 72.8097 207.47 72.8097H195.727C195.279 72.8097 194.842 72.6395 194.539 72.3104ZM56.1107 72.3887C61.4603 67.1444 57.153 55.4304 50.2572 49.9747C49.7065 49.539 48.9396 49.5276 48.3771 49.948C42.0823 54.6531 35.911 65.6086 42.0842 72.3104C42.3873 72.6395 42.8251 72.8097 43.2725 72.8097H55.0159C55.4215 72.8097 55.8211 72.6727 56.1107 72.3887Z" stroke="#1B6683" stroke-width="7" stroke-linecap="round"/>
<circle cx="124.477" cy="123.775" r="5.22721" fill="#1B6683"/>
<circle cx="125.784" cy="254.455" r="5.22721" fill="#1B6683"/>
<ellipse cx="124.477" cy="8.34081" rx="5.22721" ry="7.84081" fill="#1B6683"/>
</svg>
