<svg width="18" height="18" viewBox="0 0 18 18" fill="none" xmlns="http://www.w3.org/2000/svg">
<path d="M3.91741 1.6875C3.54466 1.6875 3.18691 1.836 2.92366 2.1L1.94866 3.0735C1.44483 3.57639 1.15044 4.25163 1.12486 4.96304C1.09929 5.67444 1.34443 6.36907 1.81084 6.90685C2.27726 7.44463 2.93025 7.78553 3.63812 7.86081C4.34599 7.93609 5.05607 7.74015 5.62516 7.3125C6.09541 7.665 6.67966 7.875 7.31266 7.875C7.94566 7.875 8.53066 7.665 9.00016 7.3125C9.46966 7.665 10.0547 7.875 10.6877 7.875C11.3207 7.875 11.9049 7.665 12.3752 7.3125C12.9442 7.74015 13.6543 7.93609 14.3622 7.86081C15.0701 7.78553 15.7231 7.44463 16.1895 6.90685C16.6559 6.36907 16.901 5.67444 16.8755 4.96304C16.8499 4.25163 16.5555 3.57639 16.0517 3.0735L15.0767 2.09925C14.8131 1.83573 14.4556 1.68763 14.0829 1.6875H3.91741Z" fill="#C0C4CC"/>
<path fill-rule="evenodd" clip-rule="evenodd" d="M2.25 15.1875V8.62123C3.315 9.12673 4.56 9.12598 5.625 8.62123C6.15235 8.87137 6.72884 9.00076 7.3125 8.99998C7.9155 8.99998 8.4885 8.86348 9 8.62048C9.52729 8.87088 10.1038 9.00052 10.6875 8.99998C11.2905 8.99998 11.8628 8.86348 12.375 8.62048C13.44 9.12598 14.685 9.12673 15.75 8.62123V15.1875H16.3125C16.4617 15.1875 16.6048 15.2467 16.7102 15.3522C16.8157 15.4577 16.875 15.6008 16.875 15.75C16.875 15.8992 16.8157 16.0422 16.7102 16.1477C16.6048 16.2532 16.4617 16.3125 16.3125 16.3125H1.6875C1.53832 16.3125 1.39524 16.2532 1.28975 16.1477C1.18426 16.0422 1.125 15.8992 1.125 15.75C1.125 15.6008 1.18426 15.4577 1.28975 15.3522C1.39524 15.2467 1.53832 15.1875 1.6875 15.1875H2.25ZM4.5 10.6875C4.5 10.5383 4.55926 10.3952 4.66475 10.2897C4.77024 10.1842 4.91332 10.125 5.0625 10.125H7.3125C7.46168 10.125 7.60476 10.1842 7.71025 10.2897C7.81574 10.3952 7.875 10.5383 7.875 10.6875V12.9375C7.875 13.0867 7.81574 13.2297 7.71025 13.3352C7.60476 13.4407 7.46168 13.5 7.3125 13.5H5.0625C4.91332 13.5 4.77024 13.4407 4.66475 13.3352C4.55926 13.2297 4.5 13.0867 4.5 12.9375V10.6875ZM10.6875 10.125C10.5383 10.125 10.3952 10.1842 10.2898 10.2897C10.1843 10.3952 10.125 10.5383 10.125 10.6875V14.625C10.125 14.9355 10.377 15.1875 10.6875 15.1875H12.9375C13.0867 15.1875 13.2298 15.1282 13.3352 15.0227C13.4407 14.9172 13.5 14.7742 13.5 14.625V10.6875C13.5 10.5383 13.4407 10.3952 13.3352 10.2897C13.2298 10.1842 13.0867 10.125 12.9375 10.125H10.6875Z" fill="#C0C4CC"/>
</svg>
