<svg width="295" height="308" viewBox="0 0 295 308" fill="none" xmlns="http://www.w3.org/2000/svg">
<path d="M275.089 280.069C283.243 273.416 296.106 249.838 288.87 250.476C283.271 250.969 277.154 251.458 270.611 251.935M275.089 280.069H23.2354M275.089 280.069V280.069C275.089 293.562 264.151 304.5 250.658 304.5H47.6668C34.1737 304.5 23.2354 293.562 23.2354 280.069V280.069M23.2354 280.069C16.22 276.459 -2.60118 254.181 6.38153 250.883C8.10097 250.252 10.0074 250.665 11.8087 250.996C29.028 254.169 53.5787 255.977 81.4621 256.796M81.4621 256.796V125.91C81.4621 122.109 84.5433 119.028 88.3442 119.028H102.487C106.288 119.028 109.369 122.109 109.369 125.91V257.294M81.4621 256.796C90.4621 257.061 99.8093 257.223 109.369 257.294M109.369 257.294C117.511 257.355 125.808 257.351 134.176 257.289M164.495 256.829V70.8527C164.495 67.0519 161.413 63.9707 157.612 63.9707H141.058C137.257 63.9707 134.176 67.0519 134.176 70.8527V257.289M164.495 256.829C154.381 257.056 144.227 257.214 134.176 257.289M164.495 256.829C172.468 256.65 180.416 256.427 188.267 256.168M188.267 256.168V125.91C188.267 122.109 191.349 119.028 195.149 119.028H209.292C213.093 119.028 216.175 122.109 216.175 125.91V255.082M188.267 256.168C197.751 255.855 207.095 255.489 216.175 255.082M216.175 255.082C236.016 254.19 254.595 253.101 270.611 251.935M270.611 251.935V161.352C270.611 157.551 267.53 154.47 263.729 154.47H249.93C246.129 154.47 243.048 157.551 243.048 161.352V253.714M92.312 59.5473C84.2446 71.1783 76.729 81.2127 85.9324 94.553C89.9659 100.4 98.7923 100.227 102.424 94.1228C110.338 80.8211 102.886 70.499 94.5543 59.4977C93.9866 58.7479 92.8479 58.7746 92.312 59.5473ZM201.928 59.9776C193.861 71.6086 186.345 81.643 195.549 94.9833C199.582 100.83 208.409 100.657 212.04 94.553C219.954 81.2514 212.502 70.9292 204.171 59.9279C203.603 59.1782 202.464 59.2049 201.928 59.9776ZM256.31 94.6027C248.242 106.234 240.727 116.268 249.93 129.608C253.964 135.455 262.79 135.282 266.421 129.178C274.335 115.876 266.883 105.554 258.552 94.553C257.984 93.8033 256.846 93.83 256.31 94.6027ZM147.612 4.09611C139.545 15.7271 132.029 25.7615 141.233 39.1018C145.266 44.9483 154.093 44.7753 157.724 38.6716C165.638 25.3699 158.186 15.0477 149.855 4.04644C149.287 3.29672 148.148 3.32338 147.612 4.09611ZM38.6884 93.7597C30.6166 105.397 23.0959 115.436 32.32 128.787C36.3522 134.623 45.156 134.45 48.7873 128.356C56.7199 115.045 49.2631 104.717 40.927 93.7101C40.3599 92.9612 39.2238 92.9879 38.6884 93.7597ZM54.933 158.6V248.132C54.933 252.168 51.4754 255.338 47.4543 254.988L32.2777 253.668C28.7215 253.358 25.9922 250.381 25.9922 246.811V158.6C25.9922 154.799 29.0735 151.718 32.8743 151.718H48.051C51.8518 151.718 54.933 154.799 54.933 158.6Z" stroke="#1B6683" stroke-width="7" stroke-linecap="round"/>
</svg>
