<svg width="245" height="302" viewBox="0 0 245 302" fill="none" xmlns="http://www.w3.org/2000/svg">
<path d="M46.8357 128.676V164.251M36.2949 139.436H58.0352M40.877 153L53.377 158.5M197.677 128.676V139.436M197.677 139.436V155.622M197.677 139.436H187.137M197.677 139.436H208.877M197.677 155.622V164.251M197.677 155.622L191.719 153M197.677 155.622L204.219 158.5" stroke="#1B6683" stroke-width="7" stroke-linecap="round"/>
<path d="M122.477 185.991V270.317M99.5391 211.497H145.655" stroke="#1B6683" stroke-width="7" stroke-linecap="round"/>
<path d="M110.377 246L133.877 261.5" stroke="#1B6683" stroke-width="7" stroke-linecap="round"/>
<path d="M22.0195 58.1847V44.1304C22.0195 34.4279 29.8849 26.5625 39.5874 26.5625H71.2096" stroke="#1B6683" stroke-width="7" stroke-linecap="round"/>
<path d="M221.855 58.1847V44.1304C221.855 34.4279 213.99 26.5625 204.288 26.5625H172.665" stroke="#1B6683" stroke-width="7" stroke-linecap="round"/>
<rect x="4" y="7.22412" width="236.755" height="290.776" rx="31.6358" stroke="#1B6683" stroke-width="7"/>
<circle cx="46.6161" cy="52.036" r="5.27037" fill="#1B6683"/>
<circle cx="197.261" cy="52.036" r="5.27037" fill="#1B6683"/>
<path fill-rule="evenodd" clip-rule="evenodd" d="M88.3012 96.3947C89.0163 108.476 93.6903 120.139 100.857 126.041C104.668 133.141 110.283 137.264 115.57 139.656C120.708 141.98 124.607 142.02 129.624 139.656C134.612 137.305 140.064 133.264 143.459 126.041C151.082 117.521 155.653 106.814 156.773 96.3947C154.129 96.2421 151.594 95.886 149.184 95.3569C151.584 110.449 139.272 127.549 129.624 139.656L129.268 132.296C129.098 128.794 126.209 126.041 122.702 126.041C119.382 126.041 116.552 128.513 116.029 131.792C116.025 131.821 116.02 131.85 116.015 131.879C115.468 135.314 115.57 138.124 115.57 139.656C99.7586 125.354 93.6098 103.393 96.245 94.6694C93.9529 95.1592 90.8649 96.2 88.3012 96.3947Z" fill="#1B6683"/>
<path d="M22.2402 73.3374V260.875C22.2402 270.577 30.1057 278.443 39.8081 278.443H49.1307C51.7641 278.443 53.8026 276.142 53.5399 273.521C52.6908 265.054 52.231 256.194 52.2586 247.26M100.857 148.001C110.08 165.349 135.334 164.471 143.459 148.001M100.857 148.001C90.9393 150.371 82.8231 155.545 76.2615 162.718M100.857 148.001V126.041M143.459 148.001C153.678 149.272 162.045 154.142 168.808 161.616M143.459 148.001V126.041M222.953 73.3374V260.875C222.953 270.577 215.088 278.443 205.386 278.443H197.333C194.796 278.443 192.789 276.3 192.918 273.767C193.361 265.015 193.472 256.1 193.194 247.26M76.2615 162.718L99.0998 183.796M76.2615 162.718C58.815 181.791 52.3586 215.002 52.2586 247.26M168.808 161.616L145.874 183.796M168.808 161.616C185.141 179.665 192.114 212.896 193.194 247.26M52.2586 247.26L88.8726 227.302C91.7993 225.707 95.3666 227.825 95.3666 231.158V298.206M193.194 247.26L156.084 227.254C153.157 225.676 149.607 227.795 149.607 231.12V297.328M100.857 126.041C93.6903 120.139 89.0163 108.476 88.3012 96.3947M100.857 126.041C104.668 133.141 110.283 137.264 115.57 139.656M143.459 126.041C151.082 117.521 155.653 106.814 156.773 96.3947M143.459 126.041C140.064 133.264 134.612 137.305 129.624 139.656M88.3012 96.3947C87.1536 77.0083 96.1998 56.5459 121.499 57.0871C148.154 57.0871 158.945 76.1992 156.773 96.3947M88.3012 96.3947C90.8649 96.2 93.9529 95.1592 96.245 94.6694M156.773 96.3947C154.129 96.2421 151.594 95.886 149.184 95.3569M96.245 94.6694C109.47 91.8429 117.67 84.9486 121.119 77.3798C121.523 76.4938 123.586 76.5165 123.987 77.4037C127.508 85.1905 136.661 92.6079 149.184 95.3569M96.245 94.6694C93.6098 103.393 99.7586 125.354 115.57 139.656M115.57 139.656C120.708 141.98 124.607 142.02 129.624 139.656M115.57 139.656C115.57 138.124 115.468 135.314 116.015 131.879C116.02 131.85 116.025 131.821 116.029 131.792C116.552 128.513 119.382 126.041 122.702 126.041V126.041C126.209 126.041 129.098 128.794 129.268 132.296L129.624 139.656M149.184 95.3569C151.584 110.449 139.272 127.549 129.624 139.656" stroke="#1B6683" stroke-width="7" stroke-linecap="round"/>
<path d="M146.313 148.879C160.356 143.499 170.76 136.799 178.202 123.731C185.644 110.664 188.325 95.4196 185.788 80.5968C183.251 65.774 175.652 52.2896 164.287 42.441C152.923 32.5925 138.495 26.9892 123.462 26.5859C108.429 26.1826 93.721 31.0043 81.8445 40.2294C69.968 49.4544 61.6576 62.5121 58.3293 77.1775C55.001 91.843 56.8607 107.209 63.5915 120.657C70.3223 134.105 84.4868 142.753 98.2211 148.879" stroke="#1B6683" stroke-width="7"/>
</svg>
