<svg width="18" height="18" viewBox="0 0 18 18" fill="none" xmlns="http://www.w3.org/2000/svg">
<path fill-rule="evenodd" clip-rule="evenodd" d="M3.636 2.07825C5.4121 1.81755 7.20487 1.68695 9 1.6875C10.8225 1.6875 12.6128 1.821 14.364 2.0775C15.8475 2.2965 16.875 3.5955 16.875 5.055V9.57C16.875 11.0295 15.8475 12.3285 14.364 12.5475C12.909 12.7605 11.427 12.8888 9.9225 12.9263C9.8477 12.9277 9.77631 12.9578 9.723 13.0103L6.585 16.1475C6.50633 16.2261 6.40615 16.2796 6.2971 16.3012C6.18805 16.3229 6.07503 16.3118 5.97231 16.2692C5.86959 16.2267 5.78177 16.1547 5.71996 16.0623C5.65814 15.9698 5.6251 15.8612 5.625 15.75V12.7838C4.95996 12.7229 4.29672 12.6439 3.636 12.5468C2.1525 12.3293 1.125 11.0288 1.125 9.56925V5.05575C1.125 3.59625 2.1525 2.29575 3.636 2.07825Z" fill="#C0C4CC"/>
</svg>
