<svg width="23" height="21" viewBox="0 0 23 21" fill="none" xmlns="http://www.w3.org/2000/svg">
<path fill-rule="evenodd" clip-rule="evenodd" d="M17.0799 20.3357C18.4279 20.9431 18.9334 19.6705 18.9334 19.6705L22.5 1.21706C22.4719 -0.0266926 20.843 0.725287 20.843 0.725287L0.875845 8.79511C0.875845 8.79511 -0.0789893 9.14213 0.0052651 9.74961C0.0895114 10.357 0.84776 10.6462 0.84776 10.6462L5.87469 12.3816C5.87469 12.3816 7.39119 17.5011 7.70008 18.4846C7.98093 19.4391 8.23365 19.468 8.23365 19.468C8.5145 19.5837 8.76722 19.3812 8.76722 19.3812L12.0249 16.3442L17.0799 20.3357ZM17.9505 4.48543C17.9505 4.48543 18.6526 4.0515 18.6245 4.48543C18.6245 4.48543 18.7368 4.5432 18.3717 4.94815C18.0347 5.29526 10.0872 12.6419 9.02002 13.6254C8.93573 13.6832 8.87956 13.77 8.87956 13.8857L8.57067 16.6045C8.5145 16.8937 8.14944 16.9226 8.06514 16.6623L6.74528 12.2081C6.68911 12.0345 6.74528 11.8321 6.91379 11.7164L17.9505 4.48543Z" fill="white"/>
</svg>
