<svg width="21" height="21" viewBox="0 0 21 21" fill="none" xmlns="http://www.w3.org/2000/svg">
<path d="M9.50891 0.511889C7.64776 0.711298 5.94301 1.38381 4.42203 2.52162C3.92546 2.89306 2.90496 3.91357 2.53351 4.41013C1.51692 5.76689 0.891324 7.21749 0.609806 8.8675C0.504237 9.47746 0.465137 10.885 0.535517 11.5224C0.715375 13.1958 1.26277 14.709 2.17771 16.0658L2.38102 16.3668L1.75152 18.228C1.40744 19.2524 1.12983 20.093 1.13374 20.0969C1.13765 20.1048 1.98612 19.8389 3.01835 19.5065C4.05058 19.1742 4.93033 18.9005 4.96943 18.9005C5.00853 18.9005 5.13365 18.9552 5.24312 19.0256C6.49432 19.8076 7.94101 20.3003 9.47763 20.4645C10.115 20.5349 11.5225 20.4958 12.1325 20.3902C13.7825 20.1087 15.237 19.4831 16.5899 18.4665C17.0864 18.095 18.1069 17.0745 18.4784 16.578C19.5106 15.1977 20.1401 13.7159 20.4256 11.9994C20.5272 11.3816 20.5272 9.60649 20.4256 8.98871C20.1401 7.27223 19.5106 5.79035 18.4784 4.41013C18.1069 3.91357 17.0864 2.89306 16.5899 2.52162C15.237 1.50893 13.7903 0.883337 12.1325 0.597908C11.7532 0.531439 11.46 0.511889 10.6623 0.50407C10.115 0.49625 9.59492 0.50016 9.50891 0.511889ZM7.35842 5.15303C7.46008 5.19604 7.51873 5.26642 7.60866 5.44628C7.83544 5.89201 8.66826 7.94084 8.66826 8.05032C8.66826 8.23409 8.51577 8.47651 8.13651 8.91051C7.9371 9.13338 7.75333 9.35625 7.72987 9.39535C7.6243 9.59476 7.72596 9.86064 8.11696 10.4159C8.97324 11.6319 9.95073 12.4842 11.1824 13.0746C12.1599 13.5477 12.2811 13.5165 12.9106 12.6445C13.3641 12.015 13.544 11.8665 13.806 11.9251C14.0718 11.9838 16.3514 13.0942 16.4491 13.2154C16.5899 13.3835 16.4647 14.3063 16.238 14.7481C15.9134 15.3893 14.9086 15.9797 13.9936 16.0658C13.0435 16.1596 10.7796 15.3698 9.43853 14.4783C8.08177 13.5751 6.6859 12.0971 5.59893 10.4198C5.05154 9.57521 4.71919 8.59771 4.71919 7.83527C4.71919 7.01418 4.97334 6.3182 5.50118 5.69651C5.7436 5.40327 5.97038 5.24296 6.25581 5.15694C6.48259 5.08265 7.18638 5.08265 7.35842 5.15303Z" fill="white"/>
</svg>
