<svg width="29" height="29" viewBox="0 0 29 29" fill="none" xmlns="http://www.w3.org/2000/svg">
<g clip-path="url(#clip0_2001_4556)">
<path d="M28.7415 20.9856C28.6636 20.855 28.1814 19.8073 25.8613 17.6539C23.4323 15.399 23.7586 15.7652 26.6842 11.8662C28.466 9.49164 29.1784 8.04153 28.9554 7.42161C28.7433 6.83069 27.4328 6.98658 27.4328 6.98658L23.0752 7.01195C23.0752 7.01195 22.7526 6.96845 22.5115 7.11165C22.2777 7.25303 22.1272 7.57931 22.1272 7.57931C22.1272 7.57931 21.4366 9.41732 20.5158 10.9798C18.5745 14.277 17.7968 14.451 17.4796 14.2462C16.7419 13.7695 16.9268 12.3284 16.9268 11.3061C16.9268 8.11041 17.4108 6.77812 15.9824 6.43372C15.5075 6.31953 15.1595 6.2434 13.9468 6.23071C12.3916 6.21439 11.0738 6.23615 10.3288 6.60048C9.83213 6.84338 9.44967 7.38536 9.68349 7.41617C9.9717 7.45424 10.6243 7.592 10.9705 8.06328C11.4182 8.67051 11.4019 10.0372 11.4019 10.0372C11.4019 10.0372 11.6593 13.7985 10.8019 14.2661C10.2128 14.587 9.40616 13.9326 7.6751 10.9399C6.78872 9.40826 6.11804 7.71344 6.11804 7.71344C6.11804 7.71344 5.98935 7.39804 5.75914 7.22947C5.48 7.02464 5.08847 6.95939 5.08847 6.95939L0.944787 6.98476C0.944787 6.98476 0.323054 7.00289 0.0946616 7.27297C-0.108353 7.51405 0.0783479 8.01071 0.0783479 8.01071C0.0783479 8.01071 3.32296 15.6002 6.99536 19.4267C10.365 22.9341 14.1897 22.7039 14.1897 22.7039H15.9226C15.9226 22.7039 16.4464 22.6459 16.7129 22.3577C16.9594 22.0931 16.9503 21.5964 16.9503 21.5964C16.9503 21.5964 16.9159 19.2708 17.9962 18.9282C19.0603 18.5911 20.427 21.1759 21.8753 22.171C22.9701 22.9233 23.8021 22.7583 23.8021 22.7583L27.6757 22.7039C27.6757 22.7039 29.7022 22.5789 28.7415 20.9856Z" fill="white"/>
</g>
<defs>
<clipPath id="clip0_2001_4556">
<rect width="29" height="29" fill="white"/>
</clipPath>
</defs>
</svg>
